<?xml version="1.0" standalone="no"?>
<!DOCTYPE svg PUBLIC "-//W3C//DTD SVG 20010904//EN"
 "http://www.w3.org/TR/2001/REC-SVG-20010904/DTD/svg10.dtd">
<svg version="1.0" xmlns="http://www.w3.org/2000/svg"
 width="225.000000pt" height="225.000000pt" viewBox="0 0 225.000000 225.000000"
 preserveAspectRatio="xMidYMid meet">
<metadata>
Created by potrace 1.14, written by Peter Selinger 2001-2017
</metadata>
<g transform="translate(0.000000,225.000000) scale(0.100000,-0.100000)"
fill="#000000" stroke="none">
<path d="M954 2047 c-3 -8 -4 -52 -2 -98 l3 -84 33 -3 c31 -3 32 -4 32 -52 l0
-48 -42 -7 c-103 -18 -247 -81 -329 -146 -34 -27 -37 -28 -52 -11 -9 10 -13
27 -10 43 4 22 -4 35 -41 73 -26 25 -52 46 -60 46 -7 0 -45 -34 -85 -75 -82
-84 -82 -85 -11 -148 44 -41 50 -43 68 -25 10 10 17 8 33 -8 l20 -20 -54 -86
c-239 -381 -111 -886 281 -1109 29 -16 94 -44 145 -62 88 -30 99 -32 242 -32
143 0 154 2 242 32 51 18 116 46 145 62 392 223 520 728 281 1109 -50 80 -52
86 -37 103 13 14 21 16 35 8 13 -6 25 -6 37 0 20 11 92 87 92 97 0 12 -144
154 -156 154 -8 0 -34 -21 -60 -46 -37 -38 -45 -51 -41 -73 3 -16 -1 -33 -10
-43 -15 -17 -18 -16 -52 11 -82 65 -226 128 -329 146 l-42 7 0 48 c0 48 1 49
33 52 l32 3 0 95 0 95 -168 3 c-134 2 -168 0 -173 -11z m325 -442 c171 -41
341 -177 420 -335 94 -192 94 -387 0 -580 -33 -68 -59 -101 -123 -165 -132
-131 -271 -189 -451 -189 -180 0 -319 58 -451 189 -64 64 -90 97 -123 165 -94
193 -94 388 0 580 77 156 248 294 416 334 77 19 233 19 312 1z"/>
<path d="M1284 1428 c-15 -23 -60 -106 -101 -185 -56 -107 -82 -147 -103 -158
-90 -47 -94 -167 -6 -209 43 -20 59 -20 102 0 56 27 80 98 53 156 -8 19 -2 57
31 186 42 167 60 252 54 252 -2 0 -16 -19 -30 -42z"/>
</g>
</svg>
